# xmcd
#
# Track frame offsets:
#	150
#	15238
#	39252
#	63313
#	85287
#	106999
#	124438
#	150125
#	175119
#	191340
#	212171
#	233543
#
# Disc length: 3439 seconds
#
# Revision: 0
# Processed by: cddbd v1.5.2PL0 Copyright (c) Steve Scherf et al.
# Submitted via: EasyCDDAExtractor 12.0.1.1
#
DISCID=870d6d0c
DTITLE=Barbara Prince - Work On Me
DYEAR=2000
DGENRE=Blues
TTITLE0=I'm Doing You
TTITLE1=Work On Me
TTITLE2=In Your Face Situation
TTITLE3=Having Such A Good Time
TTITLE4=We Don't Have To Sneak Around Anymore
TTITLE5=Why Do You Make Me Cheat On Me
TTITLE6=When Money Talks - Love Walks
TTITLE7=Make Me Come
TTITLE8=Keep Making Me Feel Good
TTITLE9=A Mixed Up Woman
TTITLE10=Ir Happened A Long Time Ago
TTITLE11=Only When I'm with You
EXTD=
EXTT0=
EXTT1=
EXTT2=
EXTT3=
EXTT4=
EXTT5=
EXTT6=
EXTT7=
EXTT8=
EXTT9=
EXTT10=
EXTT11=
PLAYORDER=
